<?xml version="1.0" encoding="UTF-8"?>
<svg viewBox="0 0 24 24" xmlns="http://www.w3.org/2000/svg" xmlns:xlink="http://www.w3.org/1999/xlink" version="1.1">
 <g id="new-group">
  <path id="path" d="M35.193 0 C8.154 0 -12.872 24.17 -11.782 53.707 L-0.75 352.593 C0.22 378.878 21.409 400 46.584 400 L355.416 400 C380.591 400 401.783 378.878 402.758 352.593 L413.846 53.707 C414.942 24.17 393.919 0 366.881 0 Z" fill="#d82042" fill-opacity="1" stroke="none"/>
  <path id="path-1" d="M0 400 L400 400 414.765 0 -14.839 0 Z" fill="#d82042" fill-opacity="1" stroke="none"/>
  <path id="path-2" d="M172.354 285.931 C172.134 285.927 171.907 285.909 171.674 285.878 L101.818 276.421 C100.483 276.243 99.541 275.815 98.994 275.14 98.369 274.367 98.139 273.346 98.303 272.075 L107.057 204.733 C107.18 203.778 107.724 202.947 108.688 202.237 109.702 201.49 110.796 201.196 111.969 201.354 L133.615 204.286 C134.246 204.371 134.795 204.555 135.262 204.839 135.728 205.123 136.169 205.426 136.584 205.747 136.757 206.168 136.937 206.624 137.123 207.112 137.31 207.601 137.408 208.155 137.416 208.774 L131.856 251.12 175.772 257.145 C177.085 257.495 178.012 258.01 178.551 258.69 179.282 259.613 179.549 260.755 179.354 262.116 L176.137 282.669 C176.068 283.778 175.629 284.622 174.822 285.202 174.126 285.703 173.304 285.946 172.354 285.931 Z M196.514 276.278 C195.81 276.293 195.225 276.007 194.76 275.419 194.683 275.323 194.631 275.206 194.606 275.073 L194.029 273.895 161 134.847 C160.703 133.627 160.699 132.39 160.986 131.136 161.274 129.881 162.063 128.776 163.358 127.817 L184.93 111.843 C185.971 111.072 187.053 110.592 188.176 110.403 189.299 110.215 190.157 110.505 190.748 111.272 191.181 111.835 191.385 112.206 191.359 112.386 L223.693 252.581 C224.085 254.2 224.206 255.423 224.059 256.251 223.911 257.079 223.301 257.877 222.231 258.645 L199.363 275.063 C198.26 275.855 197.311 276.261 196.514 276.278 Z M290.172 201.628 C289.849 201.629 289.516 201.585 289.172 201.497 L267.285 198.788 C265.756 198.58 264.65 198.029 263.963 197.136 263.391 196.391 263.135 195.378 263.197 194.097 L269.904 150.817 225.174 144.614 C223.941 144.174 223.024 143.618 222.428 142.948 221.818 142.05 221.607 140.979 221.791 139.735 L224.576 120.884 C224.722 119.9 224.913 118.922 225.151 117.95 225.387 116.978 226.028 116.107 227.074 115.337 227.807 114.798 228.703 114.577 229.76 114.677 230.817 114.777 231.827 114.87 232.793 114.958 L301.414 124.35 C302.78 124.539 303.77 125.04 304.383 125.854 304.919 126.567 305.078 127.593 304.861 128.931 L293.772 198.19 C293.574 199.408 293.032 200.335 292.149 200.97 291.541 201.406 290.882 201.625 290.172 201.628 Z" fill="#ffffff" fill-opacity="1" stroke="none"/>
 </g>
</svg>
